<?xml version="1.0" encoding="utf-8"?>
<!-- Generator: Adobe Illustrator 16.0.0, SVG Export Plug-In . SVG Version: 6.00 Build 0)  -->
<!DOCTYPE svg PUBLIC "-//W3C//DTD SVG 1.1//EN" "http://www.w3.org/Graphics/SVG/1.1/DTD/svg11.dtd">
<svg version="1.1" id="Capa_1" xmlns="http://www.w3.org/2000/svg" xmlns:xlink="http://www.w3.org/1999/xlink" x="0px" y="0px"
	 width="200px" height="21px" viewBox="0 0 200 21" enable-background="new 0 0 200 21" xml:space="preserve">
<g>
	<g>
		<path fill-rule="evenodd" clip-rule="evenodd" fill="#CFA670" d="M79.32,1.879c7.84-1.053,18.879,7.707,19.453,8.173
			c0.053,0.04,0.107,0.08,0.133,0.133c0.133,0.213,0.066,0.493-0.147,0.626l-0.826,0.507c-6.72,4.133-13.121,8.079-18.201,7.826
			C65.773,18.479,66.146,3.332,79.32,1.879z M97.733,10.386C95.48,8.653,86.146,1.879,79.426,2.773
			c-10.533,0.76-11.479,14.906,0.347,15.479c5.933,0.28,12.959-4.786,17.693-7.706L97.733,10.386z"/>
		<path fill-rule="evenodd" clip-rule="evenodd" fill="#CFA670" d="M88.613,10.359c-2.973-2.014-6.24-3.12-9-2.773
			c-0.947,0.12-1.6,0.533-1.986,1.08c-0.574,0.787-0.561,1.867-0.041,2.747c0.347,0.587,0.907,1.093,1.667,1.373
			C81.36,13.546,85.013,12.386,88.613,10.359z M98.854,17.773c-0.147,0.227-0.454,0.266-0.654,0.106
			c-1.08-0.76-2.333-1.8-3.72-2.946c-1.56-1.294-3.267-2.72-5.054-4c-3.906,2.239-8.026,3.946-10.493,3.053
			c-3.24-0.693-5.827-4.347-1.84-6.8c3.76-2.2,8.24-0.2,12.387,2.68c3.92-2.307,7.573-5.093,8.84-6.066
			c0.186-0.16,0.48-0.12,0.626,0.08c0.146,0.187,0.12,0.48-0.08,0.626c-1.24,0.96-4.747,3.64-8.587,5.934
			c1.681,1.227,3.294,2.573,4.773,3.787c1.373,1.146,2.613,2.187,3.653,2.907l0,0C98.934,17.266,99,17.559,98.854,17.773z"/>
		<path fill-rule="evenodd" clip-rule="evenodd" fill="#CFA670" d="M118.227,1.892c-7.854-1.053-19.133,7.654-19.707,8.12
			c-0.026,0.027-0.187,0.174-0.133,0.347c0.053,0.2,0.32,0.414,0.4,0.467l0.827,0.506c6.707,4.134,13.12,8.066,18.2,7.827
			C131.773,18.479,131.4,3.332,118.227,1.892z M99.813,10.386c2.253-1.733,11.587-8.507,18.307-7.601
			c10.534,0.747,11.48,14.894-0.346,15.467c-5.934,0.294-12.96-4.786-17.693-7.693L99.813,10.386z"/>
		<path fill-rule="evenodd" clip-rule="evenodd" fill="#CFA670" d="M108.813,10.372c2.974-2.027,6.227-3.133,9-2.773
			c3.24,0.413,3.067,4.186,0.347,5.186C116.066,13.559,112.414,12.399,108.813,10.372z M98.56,17.785
			c0.146,0.214,0.467,0.267,0.667,0.094c1.08-0.747,2.333-1.787,3.72-2.946c1.547-1.28,3.267-2.707,5.053-3.987
			c3.893,2.24,8.013,3.947,10.494,3.041c3.239-0.68,5.827-4.333,1.84-6.787c-3.773-2.213-8.253-0.213-12.387,2.68
			c-3.934-2.32-7.574-5.094-8.84-6.08c-0.2-0.146-0.48-0.12-0.627,0.08c-0.16,0.2-0.12,0.48,0.08,0.64
			c1.24,0.959,4.747,3.626,8.586,5.92c-1.68,1.24-3.307,2.573-4.773,3.8c-1.373,1.146-2.626,2.173-3.653,2.893v0.013
			C98.494,17.266,98.426,17.573,98.56,17.785z"/>
		<g>
			<path fill="#CFA670" d="M98.293,17.345c0.187-0.12,0.466-0.093,0.626,0.067c0.146,0.173,0.107,0.4-0.093,0.521
				c-1.094,0.693-2.187,1.346-3.28,1.866c-1.121,0.533-2.24,0.92-3.36,1.066c-1.147,0.146-2.294,0.027-3.427-0.453
				c-1.106-0.467-2.186-1.28-3.266-2.56c-0.147-0.16-0.094-0.387,0.12-0.507c0.2-0.12,0.48-0.08,0.613,0.094
				c0.987,1.16,1.973,1.906,2.947,2.32c0.96,0.4,1.92,0.493,2.88,0.374c1-0.121,2.013-0.48,3.04-0.973
				C96.146,18.666,97.213,18.026,98.293,17.345z"/>
			<path fill="#CFA670" d="M99.307,17.426c-0.187-0.12-0.467-0.093-0.627,0.067c-0.146,0.16-0.213,0.32-0.013,0.44
				c1.027,0.772,2.294,1.426,3.387,1.946c1.12,0.533,2.24,0.92,3.36,1.066c1.146,0.134,2.28,0.027,3.426-0.453
				c1.107-0.467,2.187-1.28,3.267-2.56c0.146-0.16,0.093-0.4-0.12-0.507c-0.2-0.12-0.48-0.08-0.614,0.094
				c-0.986,1.16-1.973,1.906-2.947,2.32c-0.959,0.4-1.92,0.493-2.879,0.374c-1-0.133-2.014-0.48-3.041-0.973
				C101.453,18.746,100.387,18.106,99.307,17.426z"/>
		</g>
		<g>
			<path fill="#CFA670" d="M98.4,4.026c0.174,0.134,0.427,0.093,0.561-0.08c0.146-0.173,0.106-0.44-0.067-0.573
				c-1-0.76-1.986-1.48-2.973-2.053c-1.013-0.587-2.027-1.014-3.027-1.174c-1.04-0.16-2.08-0.027-3.106,0.493
				c-1,0.521-1.986,1.414-2.96,2.827c-0.12,0.173-0.08,0.426,0.107,0.56c0.186,0.12,0.439,0.08,0.573-0.106
				c0.88-1.28,1.773-2.107,2.654-2.56c0.867-0.44,1.733-0.547,2.6-0.414c0.907,0.146,1.827,0.533,2.747,1.08
				C96.467,2.573,97.426,3.279,98.4,4.026z"/>
			<path fill="#CFA670" d="M99.32,3.933c-0.174,0.133-0.427,0.106-0.561-0.08c-0.146-0.174-0.2-0.347-0.013-0.48
				c0.92-0.84,2.066-1.573,3.054-2.133c1.013-0.587,2.026-1.014,3.04-1.174c1.041-0.16,2.067-0.04,3.094,0.493
				c1,0.507,1.986,1.414,2.959,2.813c0.12,0.187,0.08,0.44-0.106,0.561c-0.187,0.133-0.44,0.079-0.56-0.094
				c-0.893-1.293-1.787-2.107-2.667-2.56c-0.854-0.44-1.733-0.547-2.6-0.414c-0.907,0.134-1.814,0.533-2.747,1.067
				C101.253,2.492,100.293,3.186,99.32,3.933z"/>
		</g>
	</g>
	<g>
		<path fill-rule="evenodd" clip-rule="evenodd" fill="#CFA670" d="M198.307,12.146c0.934,0,1.693-0.747,1.693-1.653
			c0-0.907-0.76-1.64-1.693-1.64s-1.693,0.733-1.693,1.64C196.613,11.399,197.373,12.146,198.307,12.146z"/>
		<rect x="2.053" y="9.839" fill="#CFA670" width="67.293" height="1.787"/>
		<rect x="128.187" y="9.839" fill="#CFA670" width="70.28" height="1.787"/>
		<path fill-rule="evenodd" clip-rule="evenodd" fill="#CFA670" d="M1.693,12.439c0.934,0,1.693-0.747,1.693-1.64
			c0-0.907-0.76-1.653-1.693-1.653S0,9.892,0,10.799C0,11.693,0.76,12.439,1.693,12.439z"/>
	</g>
</g>
</svg>
